<svg width="178" height="54" viewBox="0 0 178 54" fill="none" xmlns="http://www.w3.org/2000/svg">
<path d="M42.6181 8.9039L32.8917 8.49001C32.4318 8.49001 30.9142 11.2493 28.3388 16.7679C25.7635 22.2404 23.5331 27.552 21.6476 32.7027C19.7621 37.8534 18.8193 41.5784 18.8193 43.8778C18.8193 46.1312 19.5321 47.2579 20.9578 47.2579C22.4294 47.2579 24.2689 45.7633 26.4763 42.7741C26.7063 42.4982 26.9362 42.3602 27.1661 42.3602C27.3961 42.3602 27.5111 42.5671 27.5111 42.981C27.5111 43.3949 27.1891 44.1537 26.5453 45.2574C25.9475 46.3611 25.1427 47.5568 24.1309 48.8445C23.1192 50.0862 21.8085 51.1899 20.199 52.1556C18.5894 53.1674 16.9338 53.6732 15.2323 53.6732C12.7029 53.6732 11.4382 51.9257 11.4382 48.4306C11.4382 44.1077 13.6227 36.7497 17.9915 26.3564C21.1187 19.0443 23.993 12.9738 26.6143 8.1451H25.7175L18.6124 8.00714C14.6574 8.00714 11.2083 8.513 8.26507 9.52474C6.65548 10.0766 5.36782 10.9044 4.40207 12.0081C3.48231 13.0658 3.02243 14.3535 3.02243 15.8711L3.57429 18.7683C3.57429 19.2282 3.34435 19.4582 2.88447 19.4582C2.28662 19.4582 1.80375 18.8833 1.43584 17.7336C1.06794 16.5379 0.883987 15.5032 0.883987 14.6294C0.883987 12.468 1.38986 10.6285 2.40159 9.11085C3.41333 7.59325 4.79297 6.44355 6.54051 5.66175C9.85165 4.19013 13.5077 3.45432 17.5087 3.45432C21.5096 3.45432 26.0394 3.70726 31.0981 4.21312C36.1568 4.673 40.7556 4.90294 44.8945 4.90294C49.0334 4.90294 51.7237 4.25911 52.9654 2.97145C53.1034 3.29336 53.1724 3.61528 53.1724 3.93719C53.1724 5.4548 52.2066 6.67349 50.2751 7.59324C48.3436 8.46702 45.7913 8.9039 42.6181 8.9039ZM46.7123 24.4249L50.2304 24.4938H50.9202C50.2304 24.9997 49.2417 26.4943 47.954 28.9777C46.7123 31.461 45.7696 33.3465 45.1257 34.6342C44.5279 35.8759 43.8381 37.5774 43.0563 39.7389C42.3205 41.8543 41.9525 43.5789 41.9525 44.9125C41.9525 46.2462 42.4124 46.913 43.3322 46.913C43.93 46.867 44.7578 46.4531 45.8155 45.6713C46.9193 44.8435 47.816 43.9928 48.5058 43.119C49.2416 42.1992 50.0234 41.0495 50.8512 39.6699C51.725 38.2443 52.4608 37.0256 53.0587 36.0138C53.7025 34.9561 54.0704 34.4273 54.1624 34.4273C54.4843 34.4273 54.6452 34.8641 54.6452 35.7379C54.6452 36.5657 54.4153 37.3705 53.9554 38.1523C51.9779 41.4174 50.3454 43.9238 49.0577 45.6713C47.77 47.4189 46.2064 49.0285 44.3669 50.5001C42.5734 51.9257 40.9408 52.6385 39.4692 52.6385C36.8479 52.6385 35.5372 50.707 35.5372 46.844C35.5372 44.2227 36.0431 41.2565 37.0548 37.9453C38.0666 34.6342 39.5612 31.438 41.5387 28.3568C39.9291 29.6445 38.3195 30.2883 36.7099 30.2883C36.204 30.2883 35.6752 30.1734 35.1233 29.9434C31.8582 36.3817 30.0876 39.6009 29.8117 39.6009C29.5818 39.6009 29.4668 39.233 29.4668 38.4972C29.4668 37.7154 29.7427 36.6577 30.2946 35.324C30.8924 33.9444 31.5133 32.6337 32.1571 31.392C32.8469 30.1504 33.2148 29.4605 33.2608 29.3226C31.6052 28.4948 30.7775 27.1611 30.7775 25.3216C30.7775 24.4019 31.0534 23.5741 31.6052 22.8383C32.2031 22.1025 33.0079 21.7346 34.0196 21.7346C35.0314 21.7346 35.8591 22.0565 36.503 22.7003C36.411 22.9762 36.365 23.3901 36.365 23.942C36.365 25.1837 36.8019 26.1724 37.6757 26.9082C38.5954 27.598 39.6991 27.9429 40.9868 27.9429C41.3547 27.9429 41.6306 27.92 41.8146 27.874C43.4242 25.5746 45.0567 24.4249 46.7123 24.4249ZM79.6124 24.5628L83.0615 24.6318H83.7513C82.2337 25.8735 80.3712 29.0237 78.1638 34.0823C75.9564 39.095 74.8527 42.7511 74.8527 45.0505C74.8527 46.2462 75.2666 46.844 76.0943 46.844C78.7616 46.844 82.1648 42.912 86.3037 35.0481C86.4876 34.7262 86.6486 34.5652 86.7866 34.5652C87.0625 34.5652 87.2004 35.0021 87.2004 35.8759C87.2004 36.7037 86.9705 37.5085 86.5106 38.2903C80.8541 47.8098 76.1173 52.5695 72.3003 52.5695C69.817 52.5695 68.5753 50.661 68.5753 46.844C68.5753 43.9928 69.0582 41.1875 70.0239 38.4282C64.7813 47.7178 59.9296 52.3626 55.4687 52.3626C52.3875 52.3626 50.8469 50.2471 50.8469 46.0162C50.8469 42.7971 51.5367 39.5319 52.9164 36.2208C54.342 32.9097 56.3655 30.1044 58.9868 27.805C61.6081 25.4596 64.4824 24.2869 67.6096 24.2869C69.0812 24.2869 70.4608 24.6318 71.7485 25.3216C73.0361 25.9655 73.8869 27.0232 74.3008 28.4948C74.8067 27.4371 75.5885 26.5173 76.6462 25.7355C77.7039 24.9537 78.6927 24.5628 79.6124 24.5628ZM73.8869 29.1156C73.427 27.644 72.3463 26.9082 70.6448 26.9082C67.6096 26.9082 64.6663 29.0237 61.8151 33.2546C58.9638 37.4395 57.5382 41.1875 57.5382 44.4986C57.5382 45.9243 58.09 46.6371 59.1937 46.6371C60.3894 46.6371 61.7921 45.9013 63.4016 44.4297C65.0112 42.912 66.4599 41.1415 67.7475 39.118C70.5988 34.6112 72.6452 31.2771 73.8869 29.1156ZM111.458 34.4962C111.734 34.4962 111.872 34.9331 111.872 35.8069C111.872 36.6807 111.481 37.7614 110.7 39.0491C109.964 40.3367 109.366 41.3255 108.906 42.0153C108.492 42.6591 107.756 43.7168 106.699 45.1885C105.641 46.6601 104.721 47.7178 103.939 48.3616C103.158 49.0055 102.169 49.7643 100.973 50.638C98.9497 52.1097 96.3054 52.8455 93.0402 52.8455C89.821 52.8455 87.4757 52.0407 86.004 50.4311C84.5784 48.7755 83.8656 46.6371 83.8656 44.0158C83.8656 39.187 85.5672 34.7722 88.9703 30.7712C92.4194 26.7243 96.4663 24.7008 101.111 24.7008C103.181 24.7008 104.836 25.2526 106.078 26.3564C107.319 27.4141 107.94 28.7017 107.94 30.2194C107.94 31.691 107.526 32.9786 106.699 34.0823C105.871 35.1861 104.928 35.7379 103.87 35.7379C101.801 35.7379 100.766 34.8871 100.766 33.1856C100.766 32.6337 101.341 32.1049 102.491 31.599C102.951 31.415 103.365 31.0701 103.732 30.5643C104.1 30.0584 104.284 29.3916 104.284 28.5638C104.284 27.3681 103.64 26.7702 102.353 26.7702C99.5935 26.7702 96.8572 28.7707 94.1439 32.7717C91.4306 36.7726 90.074 40.6586 90.074 44.4297C90.074 48.1547 91.7066 50.0172 94.9717 50.0172C99.5245 50.0172 103.962 46.4991 108.285 39.4629C109.159 38.0833 109.872 36.9106 110.424 35.9449C111.022 34.9791 111.366 34.4962 111.458 34.4962ZM139.493 38.4282C137.883 41.1415 136.25 43.6019 134.595 45.8093C131.054 50.4081 127.559 52.7075 124.11 52.7075C122.224 52.7075 120.798 51.7647 119.833 49.8792C118.913 47.9937 118.453 45.9013 118.453 43.6019C118.453 39.0031 119.143 36.7037 120.523 36.7037C122.684 36.7037 124.684 36.2208 126.524 35.255C128.364 34.2433 129.283 32.9326 129.283 31.3231C129.283 30.0354 128.547 29.3916 127.076 29.3916C123.903 29.3916 120.385 32.8407 116.522 39.7389C116.154 40.4287 115.372 42.0383 114.176 44.5676C113.026 47.051 111.992 48.9365 111.072 50.2241C110.198 51.5118 109.324 52.1556 108.451 52.1556H104.243C105.668 49.4883 107.761 44.1077 110.52 36.0138C113.325 27.874 115.395 22.4244 116.729 19.6651C116.775 19.5731 117.05 18.9753 117.556 17.8716C118.108 16.7679 118.476 16.0091 118.66 15.5952C118.89 15.1813 119.304 14.3995 119.902 13.2498C120.5 12.1001 120.982 11.2493 121.35 10.6974C121.718 10.1456 122.224 9.36378 122.868 8.35205C123.512 7.29432 124.087 6.48953 124.592 5.93768C125.098 5.38582 125.696 4.74199 126.386 4.00618C127.076 3.22438 127.72 2.64953 128.318 2.28163C129.881 1.36187 131.307 0.901987 132.594 0.901987C135.124 0.901987 136.388 2.05169 136.388 4.35109C136.388 7.57025 134.434 11.8471 130.525 17.1817C126.662 22.4704 122.293 27.4831 117.418 32.2198L116.177 35.6689C118.384 32.8177 120.89 30.3343 123.696 28.2189C126.501 26.0574 129.076 24.9767 131.422 24.9767C132.755 24.9767 133.79 25.2986 134.526 25.9425C135.308 26.5863 135.699 27.4601 135.699 28.5638C135.699 31.0931 134.572 33.1396 132.318 34.7032C130.111 36.2208 127.559 37.2095 124.661 37.6694C125.075 42.4522 125.742 45.3724 126.662 46.4301C127.122 46.936 127.697 47.1889 128.386 47.1889C129.076 47.1889 130.019 46.775 131.215 45.9473C132.41 45.1195 133.376 44.2227 134.112 43.257C134.894 42.2452 135.699 41.0495 136.526 39.6699C137.4 38.2903 138.136 37.0946 138.734 36.0828C139.378 35.0711 139.746 34.5652 139.838 34.5652C140.113 34.5652 140.251 35.0251 140.251 35.9449C140.251 36.8186 139.998 37.6464 139.493 38.4282ZM132.732 2.69552C130.157 2.69552 125.65 10.9734 119.212 27.5291C125.098 20.6308 129.237 14.8134 131.629 10.0766C133.008 7.59324 133.698 5.54678 133.698 3.93719C133.698 3.10941 133.376 2.69552 132.732 2.69552ZM150.953 4.00618H166.543C163.37 6.44354 159.001 13.9856 153.436 26.6323C152.011 29.8514 150.378 34.0823 148.538 39.325C146.745 44.5216 145.848 48.3156 145.848 50.707C145.848 51.3508 145.94 51.8337 146.124 52.1556H137.225C138.513 46.5911 141.226 38.8651 145.365 28.9777C150.884 15.8251 154.448 8.35205 156.057 6.55852C152.148 6.65049 148.171 7.45528 144.124 8.97288C140.123 10.4445 137.8 12.215 137.156 14.2845C137.11 14.4225 137.018 14.4914 136.88 14.4914C136.467 14.4914 136.26 14.1925 136.26 13.5947C136.26 13.5027 136.306 13.2728 136.398 12.9049C137.271 10.3755 138.536 8.42103 140.192 7.04139C141.847 5.66175 143.457 4.81097 145.02 4.48905C146.63 4.16714 148.607 4.00618 150.953 4.00618ZM177.806 12.6289C175.552 14.1925 173.023 18.1935 170.218 24.6318H177.185L177.254 24.7008C177.254 24.9307 177.001 25.3446 176.495 25.9425C175.989 26.4943 175.552 26.7702 175.184 26.7702H169.252C165.619 35.7839 163.802 41.5784 163.802 44.1537C163.802 45.9013 164.354 46.775 165.458 46.775C167.067 46.775 168.953 45.3954 171.114 42.6361C171.62 42.0383 172.287 41.0265 173.115 39.6009C175.23 36.1978 176.334 34.4962 176.426 34.4962C176.702 34.4962 176.84 34.8641 176.84 35.6C176.794 37.3475 174.885 40.7506 171.114 45.8093C169.873 47.4649 168.378 49.0055 166.631 50.4311C164.883 51.8567 163.296 52.5695 161.871 52.5695C159.249 52.5695 157.939 50.73 157.939 47.051C157.939 43.9698 158.675 40.4287 160.146 36.4277V36.3588C159.272 37.9683 158.514 39.164 157.87 39.9458C157.272 40.7276 156.927 41.1185 156.835 41.1185C156.651 41.1185 156.559 40.8426 156.559 40.2907C156.559 39.6929 156.858 38.7501 157.456 37.4625C158.1 36.1748 158.951 34.4962 160.008 32.4268C161.112 30.3573 162.009 28.4718 162.699 26.7702H158.077C157.939 26.7702 157.87 26.6783 157.87 26.4943C157.87 26.2644 158.031 25.8965 158.353 25.3906C158.721 24.8847 158.997 24.6318 159.181 24.6318H164.423C167.734 16.6759 171.091 12.6979 174.495 12.6979C176.472 12.6979 177.576 12.6749 177.806 12.6289Z" fill="#126BA5"/>
</svg>
